<svg xmlns="http://www.w3.org/2000/svg" viewBox="0 0 64 64" role="img" aria-label="sk. — Sarthak Khare">
  <rect width="64" height="64" rx="14" fill="#FBFAF7"/>
  <g fill="#0E120F">
    <path transform="translate(8.960 41.200) scale(0.01958 -0.01958)" d="M358 43Q425 43 466.5 79.0Q508 115 508 170Q508 200 495.5 229.0Q483 258 449.0 293.5Q415 329 350 379Q280 434 239.5 476.0Q199 518 182.0 558.5Q165 599 166 650Q166 725 212.0 788.0Q258 851 342.5 889.0Q427 927 543 927Q636 927 699.0 902.0Q762 877 794.5 836.0Q827 795 827 748Q827 709 809.5 688.0Q792 667 762 667Q733 667 711.5 686.0Q690 705 669 754Q644 810 607.5 838.5Q571 867 519 867Q445 867 400.0 826.5Q355 786 355 724Q355 692 367.5 661.0Q380 630 414.5 592.5Q449 555 516 500Q589 442 629.5 399.5Q670 357 685.5 318.0Q701 279 700 232Q699 159 653.5 102.0Q608 45 526.0 12.5Q444 -20 333 -20Q235 -20 166.5 9.0Q98 38 62.5 84.0Q27 130 27 180Q27 216 44.0 237.0Q61 258 90 258Q121 258 144.5 237.0Q168 216 188 168Q223 100 265.0 71.5Q307 43 358 43Z"/>
    <path transform="translate(25.364 41.200) scale(0.01958 -0.01958)" d="M383 539Q391 576 404.0 625.0Q417 674 434.5 737.5Q452 801 475.0 880.5Q498 960 525 1059Q553 1160 595.0 1224.5Q637 1289 689.0 1319.5Q741 1350 800 1350Q834 1350 865.0 1333.0Q896 1316 926.0 1294.0Q956 1272 987.5 1255.0Q1019 1238 1053 1238Q1104 1238 1132.0 1264.5Q1160 1291 1160 1331Q1160 1378 1109.0 1408.5Q1058 1439 954 1439Q782 1439 653.5 1384.5Q525 1330 438.5 1221.5Q352 1113 306 949L73 123Q61 78 61.5 46.5Q62 15 79.0 -1.5Q96 -18 133 -18Q185 -18 223.0 -7.5Q261 3 281.5 22.5Q302 42 302 68Q302 91 295.5 108.0Q289 125 289 149Q289 167 292.5 190.5Q296 214 307.5 261.5Q319 309 343 397Q368 493 417.0 575.0Q466 657 527.5 716.0Q589 775 652.0 806.5Q715 838 768 834Q817 830 839.0 800.0Q861 770 852 719Q841 649 783.0 587.0Q725 525 606.5 473.5Q488 422 294 385V329Q545 375 707.5 438.0Q870 501 953.5 577.0Q1037 653 1047 739Q1058 825 1009.5 874.0Q961 923 864 927Q783 930 705.0 901.5Q627 873 558.5 818.0Q490 763 436.5 687.5Q383 612 351 523ZM511 400 594 133Q617 53 652.0 17.5Q687 -18 748 -20Q801 -21 844.0 -1.5Q887 18 918.5 55.5Q950 93 965 146Q970 164 966.0 173.0Q962 182 952 185Q945 187 936.5 183.0Q928 179 916 164Q900 140 881.5 125.0Q863 110 841 112Q815 114 795.5 136.0Q776 158 758 213L680 445Z"/>
  </g>
  <path fill="#1F4D3E" transform="translate(46.329 41.200) scale(0.01958 -0.01958)" d="M144 -16Q87 -16 57.0 16.0Q27 48 32 95Q36 133 59.0 164.5Q82 196 121.0 214.5Q160 233 209 233Q267 233 295.0 200.5Q323 168 318 120Q314 83 291.5 52.5Q269 22 231.0 3.0Q193 -16 144 -16Z"/>
</svg>
